# xmcd
#
# Track frame offsets:
#	150
#	9953
#	20784
#	29192
#	36824
#	47776
#	56743
#	66942
#	78768
#	91149
#	99380
#	112092
#	124004
#
# Disc length: 1785 seconds
# Revision: 1
# Processed by: cddbd v1.5.2PL0 Copyright (c) Steve Scherf et al.
# Submitted via: dBpowerAMP V12.0
#
DISCID=a906f70d
DTITLE=Johnny Cash - With His Hot and Blue Guitar
DYEAR=1957
DGENRE=Country
TTITLE0=Rock Island Line
TTITLE1=I Heard That Lonesome Whistle
TTITLE2=Country Boy
TTITLE3=If The Good Lord's Willing
TTITLE4=Cry, Cry, Cry
TTITLE5=Remember Me
TTITLE6=I Was There When It Happened
TTITLE7=So Doggone Lonesome
TTITLE8=I Walk The Line
TTITLE9=Wreck Of The Old '97
TTITLE10=I Walk The Line (2)
TTITLE11=Doin' My Time
TTITLE12=Hey Porter (1955 Bonus Track)
EXTD=
EXTT0=
EXTT1=
EXTT2=
EXTT3=
EXTT4=
EXTT5=
EXTT6=
EXTT7=
EXTT8=
EXTT9=
EXTT10=
EXTT11=
EXTT12=
PLAYORDER=
